# xmcd
#
# Track frame offsets:
#	150
#	7807
#	21161
#	36077
#	48683
#	61997
#	72294
#	82997
#	94780
#	105614
#	122546
#	136246
#	149084
#	164215
#	174107
#	187313
#	198347
#
# Disc length: 2836 seconds
#
# Revision: 1
# Processed by: cddbd v1.5.2PL0 Copyright (c) Steve Scherf et al.
# Submitted via: audiograbber 1.82.02
#
DISCID=ee0b1211
DTITLE=Brian Letton - Brian Sings Jim Reeves
DYEAR=1963
DGENRE=Country
TTITLE0=Treleute To The Death To The Day 30 yrs
TTITLE1=I love You Because
TTITLE2=Four Walls
TTITLE3=Mexican Joe
TTITLE4=How I Missed You
TTITLE5=Two Worlds Calide
TTITLE6=Yorder Comes A Suiker
TTITLE7=I Want Forget You
TTITLE8=Snowflakes
TTITLE9=Blue Side Lonesome Hotel
TTITLE10=Distant Drums
TTITLE11=Bimbo
TTITLE12=Welcome To My World
TTITLE13=Easy To Forget
TTITLE14=Wall Us With My Darleng
TTITLE15=Billy By Oh!
TTITLE16=Well Move To Go
EXTD=
EXTT0=
EXTT1=
EXTT2=
EXTT3=
EXTT4=
EXTT5=
EXTT6=
EXTT7=
EXTT8=
EXTT9=
EXTT10=
EXTT11=
EXTT12=
EXTT13=
EXTT14=
EXTT15=
EXTT16=
PLAYORDER=
